<?xml version="1.0" encoding="utf-8"?>
<!-- Generator: Adobe Illustrator 25.4.1, SVG Export Plug-In . SVG Version: 6.00 Build 0)  -->
<svg version="1.1" baseProfile="tiny" id="Layer_1" xmlns="http://www.w3.org/2000/svg"
	 x="0px" y="0px" viewBox="0 0 512 512" xml:space="preserve">
<rect x="-0.5" y="-0.5" fill="#808080" width="512" height="512"/>
<g>
	<path fill="#F2F2F2" d="M315.6,146.7c14.7,12.5,22.1,30.3,22.1,53.5c0,20.3-6.8,36.4-20.2,48.2c-13.5,11.8-31.3,18-53.4,18.4
		l-1.7,24.4h-57.9l-2-66.6h24.1c15.2,0,26.8-1.7,34.8-5.2c8-3.5,12-9.6,12-18.6c0-6-1.6-10.8-4.9-14.2c-3.2-3.5-7.6-5.2-13.2-5.2
		c-6.2,0-11,1.8-14.2,5.5c-3.2,3.7-4.9,8.6-4.9,14.9h-61.9c-0.4-13.6,2.4-26,8.5-37.3c6.1-11.3,15.4-20.2,27.9-26.8
		c12.5-6.6,27.9-9.9,46.2-9.9C281.3,128,300.9,134.2,315.6,146.7z M206,374.5c-7-6.4-10.5-14.4-10.5-24.3c0-9.8,3.5-18,10.5-24.4
		c7-6.5,16.3-9.7,27.9-9.7c11.4,0,20.6,3.2,27.6,9.7c7,6.5,10.5,14.6,10.5,24.4c0,9.6-3.5,17.6-10.5,24.1c-7,6.5-16.2,9.7-27.6,9.7
		C222.3,384,213,380.8,206,374.5z"/>
</g>
</svg>
